<mxfile host="Electron" agent="Mozilla/5.0 (Windows NT 10.0; Win64; x64) AppleWebKit/537.36 (KHTML, like Gecko) draw.io/25.0.2 Chrome/128.0.6613.186 Electron/32.2.5 Safari/537.36" version="25.0.2">
  <diagram name="Страница — 1" id="nC48Le5rgUDgib7XC-h6">
    <mxGraphModel dx="1834" dy="844" grid="1" gridSize="10" guides="1" tooltips="1" connect="1" arrows="1" fold="1" page="0" pageScale="1" pageWidth="827" pageHeight="1169" math="0" shadow="0">
      <root>
        <mxCell id="0" />
        <mxCell id="1" parent="0" />
        <mxCell id="R9-uWrWCZL9Jvek7oCDa-1" value="А3" style="swimlane;whiteSpace=wrap;html=1;flipV=1;align=left;" vertex="1" parent="1">
          <mxGeometry x="-110" y="260" width="820" height="400" as="geometry" />
        </mxCell>
        <mxCell id="R9-uWrWCZL9Jvek7oCDa-21" style="edgeStyle=orthogonalEdgeStyle;rounded=0;orthogonalLoop=1;jettySize=auto;html=1;exitX=1;exitY=0.5;exitDx=0;exitDy=0;" edge="1" parent="R9-uWrWCZL9Jvek7oCDa-1" source="R9-uWrWCZL9Jvek7oCDa-2" target="R9-uWrWCZL9Jvek7oCDa-12">
          <mxGeometry relative="1" as="geometry" />
        </mxCell>
        <mxCell id="R9-uWrWCZL9Jvek7oCDa-2" value="Перевірити наявність товару" style="rounded=0;whiteSpace=wrap;html=1;" vertex="1" parent="R9-uWrWCZL9Jvek7oCDa-1">
          <mxGeometry x="170" y="130" width="120" height="60" as="geometry" />
        </mxCell>
        <mxCell id="R9-uWrWCZL9Jvek7oCDa-25" style="edgeStyle=orthogonalEdgeStyle;rounded=0;orthogonalLoop=1;jettySize=auto;html=1;exitX=0.5;exitY=0;exitDx=0;exitDy=0;entryX=0.5;entryY=1;entryDx=0;entryDy=0;" edge="1" parent="R9-uWrWCZL9Jvek7oCDa-1" source="R9-uWrWCZL9Jvek7oCDa-3" target="R9-uWrWCZL9Jvek7oCDa-12">
          <mxGeometry relative="1" as="geometry" />
        </mxCell>
        <mxCell id="R9-uWrWCZL9Jvek7oCDa-26" style="edgeStyle=orthogonalEdgeStyle;rounded=0;orthogonalLoop=1;jettySize=auto;html=1;exitX=0.5;exitY=0;exitDx=0;exitDy=0;" edge="1" parent="R9-uWrWCZL9Jvek7oCDa-1" source="R9-uWrWCZL9Jvek7oCDa-3" target="R9-uWrWCZL9Jvek7oCDa-2">
          <mxGeometry relative="1" as="geometry" />
        </mxCell>
        <mxCell id="R9-uWrWCZL9Jvek7oCDa-27" style="edgeStyle=orthogonalEdgeStyle;rounded=0;orthogonalLoop=1;jettySize=auto;html=1;exitX=0.5;exitY=0;exitDx=0;exitDy=0;entryX=0.5;entryY=1;entryDx=0;entryDy=0;" edge="1" parent="R9-uWrWCZL9Jvek7oCDa-1" source="R9-uWrWCZL9Jvek7oCDa-3" target="R9-uWrWCZL9Jvek7oCDa-14">
          <mxGeometry relative="1" as="geometry" />
        </mxCell>
        <mxCell id="R9-uWrWCZL9Jvek7oCDa-3" value="Відділ продажів" style="text;html=1;align=center;verticalAlign=middle;whiteSpace=wrap;rounded=0;" vertex="1" parent="R9-uWrWCZL9Jvek7oCDa-1">
          <mxGeometry x="335" y="330" width="150" height="30" as="geometry" />
        </mxCell>
        <mxCell id="R9-uWrWCZL9Jvek7oCDa-24" style="edgeStyle=orthogonalEdgeStyle;rounded=0;orthogonalLoop=1;jettySize=auto;html=1;exitX=1;exitY=0.5;exitDx=0;exitDy=0;entryX=0;entryY=0.75;entryDx=0;entryDy=0;" edge="1" parent="R9-uWrWCZL9Jvek7oCDa-1" source="R9-uWrWCZL9Jvek7oCDa-5" target="R9-uWrWCZL9Jvek7oCDa-2">
          <mxGeometry relative="1" as="geometry" />
        </mxCell>
        <mxCell id="R9-uWrWCZL9Jvek7oCDa-5" value="Дані про склад" style="text;html=1;align=center;verticalAlign=middle;whiteSpace=wrap;rounded=0;" vertex="1" parent="R9-uWrWCZL9Jvek7oCDa-1">
          <mxGeometry y="160" width="100" height="30" as="geometry" />
        </mxCell>
        <mxCell id="R9-uWrWCZL9Jvek7oCDa-23" style="edgeStyle=orthogonalEdgeStyle;rounded=0;orthogonalLoop=1;jettySize=auto;html=1;exitX=1;exitY=0.5;exitDx=0;exitDy=0;entryX=0;entryY=0.25;entryDx=0;entryDy=0;" edge="1" parent="R9-uWrWCZL9Jvek7oCDa-1" source="R9-uWrWCZL9Jvek7oCDa-6" target="R9-uWrWCZL9Jvek7oCDa-2">
          <mxGeometry relative="1" as="geometry" />
        </mxCell>
        <mxCell id="R9-uWrWCZL9Jvek7oCDa-6" value="Отримати замовлення" style="text;html=1;align=center;verticalAlign=middle;whiteSpace=wrap;rounded=0;" vertex="1" parent="R9-uWrWCZL9Jvek7oCDa-1">
          <mxGeometry x="-2.5" y="130" width="102.5" height="30" as="geometry" />
        </mxCell>
        <mxCell id="R9-uWrWCZL9Jvek7oCDa-22" style="edgeStyle=orthogonalEdgeStyle;rounded=0;orthogonalLoop=1;jettySize=auto;html=1;exitX=1;exitY=0.5;exitDx=0;exitDy=0;" edge="1" parent="R9-uWrWCZL9Jvek7oCDa-1" source="R9-uWrWCZL9Jvek7oCDa-12" target="R9-uWrWCZL9Jvek7oCDa-14">
          <mxGeometry relative="1" as="geometry" />
        </mxCell>
        <mxCell id="R9-uWrWCZL9Jvek7oCDa-12" value="Зарезервувати&lt;div&gt;товар&lt;/div&gt;" style="rounded=0;whiteSpace=wrap;html=1;" vertex="1" parent="R9-uWrWCZL9Jvek7oCDa-1">
          <mxGeometry x="350" y="160" width="120" height="60" as="geometry" />
        </mxCell>
        <mxCell id="R9-uWrWCZL9Jvek7oCDa-29" style="edgeStyle=orthogonalEdgeStyle;rounded=0;orthogonalLoop=1;jettySize=auto;html=1;exitX=1;exitY=0.5;exitDx=0;exitDy=0;" edge="1" parent="R9-uWrWCZL9Jvek7oCDa-1" source="R9-uWrWCZL9Jvek7oCDa-14" target="R9-uWrWCZL9Jvek7oCDa-28">
          <mxGeometry relative="1" as="geometry" />
        </mxCell>
        <mxCell id="R9-uWrWCZL9Jvek7oCDa-14" value="Оформити рахунок для клієнта" style="rounded=0;whiteSpace=wrap;html=1;" vertex="1" parent="R9-uWrWCZL9Jvek7oCDa-1">
          <mxGeometry x="540" y="190" width="120" height="60" as="geometry" />
        </mxCell>
        <mxCell id="R9-uWrWCZL9Jvek7oCDa-28" value="Готовий для відправки товар" style="text;html=1;align=center;verticalAlign=middle;whiteSpace=wrap;rounded=0;" vertex="1" parent="R9-uWrWCZL9Jvek7oCDa-1">
          <mxGeometry x="710" y="205" width="110" height="30" as="geometry" />
        </mxCell>
        <mxCell id="R9-uWrWCZL9Jvek7oCDa-31" style="edgeStyle=orthogonalEdgeStyle;rounded=0;orthogonalLoop=1;jettySize=auto;html=1;exitX=0.5;exitY=1;exitDx=0;exitDy=0;" edge="1" parent="R9-uWrWCZL9Jvek7oCDa-1" source="R9-uWrWCZL9Jvek7oCDa-30" target="R9-uWrWCZL9Jvek7oCDa-2">
          <mxGeometry relative="1" as="geometry" />
        </mxCell>
        <mxCell id="R9-uWrWCZL9Jvek7oCDa-30" value="Каталог товарів" style="text;html=1;align=center;verticalAlign=middle;whiteSpace=wrap;rounded=0;" vertex="1" parent="R9-uWrWCZL9Jvek7oCDa-1">
          <mxGeometry x="180" y="70" width="100" height="30" as="geometry" />
        </mxCell>
        <mxCell id="R9-uWrWCZL9Jvek7oCDa-33" style="edgeStyle=orthogonalEdgeStyle;rounded=0;orthogonalLoop=1;jettySize=auto;html=1;exitX=0.5;exitY=1;exitDx=0;exitDy=0;entryX=0.5;entryY=0;entryDx=0;entryDy=0;" edge="1" parent="R9-uWrWCZL9Jvek7oCDa-1" source="R9-uWrWCZL9Jvek7oCDa-32" target="R9-uWrWCZL9Jvek7oCDa-12">
          <mxGeometry relative="1" as="geometry" />
        </mxCell>
        <mxCell id="R9-uWrWCZL9Jvek7oCDa-32" value="Правила резервації товару" style="text;html=1;align=center;verticalAlign=middle;whiteSpace=wrap;rounded=0;" vertex="1" parent="R9-uWrWCZL9Jvek7oCDa-1">
          <mxGeometry x="345" y="100" width="130" height="30" as="geometry" />
        </mxCell>
        <mxCell id="R9-uWrWCZL9Jvek7oCDa-36" style="edgeStyle=orthogonalEdgeStyle;rounded=0;orthogonalLoop=1;jettySize=auto;html=1;exitX=0.5;exitY=1;exitDx=0;exitDy=0;" edge="1" parent="R9-uWrWCZL9Jvek7oCDa-1" source="R9-uWrWCZL9Jvek7oCDa-35" target="R9-uWrWCZL9Jvek7oCDa-14">
          <mxGeometry relative="1" as="geometry" />
        </mxCell>
        <mxCell id="R9-uWrWCZL9Jvek7oCDa-35" value="Реквізити" style="text;html=1;align=center;verticalAlign=middle;whiteSpace=wrap;rounded=0;" vertex="1" parent="R9-uWrWCZL9Jvek7oCDa-1">
          <mxGeometry x="535" y="130" width="130" height="30" as="geometry" />
        </mxCell>
        <mxCell id="R9-uWrWCZL9Jvek7oCDa-37" value="1" style="text;html=1;align=right;verticalAlign=bottom;whiteSpace=wrap;rounded=0;" vertex="1" parent="R9-uWrWCZL9Jvek7oCDa-1">
          <mxGeometry x="230" y="160" width="60" height="30" as="geometry" />
        </mxCell>
        <mxCell id="R9-uWrWCZL9Jvek7oCDa-38" value="2" style="text;html=1;align=right;verticalAlign=bottom;whiteSpace=wrap;rounded=0;" vertex="1" parent="R9-uWrWCZL9Jvek7oCDa-1">
          <mxGeometry x="410" y="190" width="60" height="30" as="geometry" />
        </mxCell>
        <mxCell id="R9-uWrWCZL9Jvek7oCDa-39" value="3" style="text;html=1;align=right;verticalAlign=bottom;whiteSpace=wrap;rounded=0;" vertex="1" parent="R9-uWrWCZL9Jvek7oCDa-1">
          <mxGeometry x="600" y="220" width="60" height="30" as="geometry" />
        </mxCell>
      </root>
    </mxGraphModel>
  </diagram>
</mxfile>
